# xmcd
#
# Track frame offsets: 
#        150
#        19627
#        38206
#        54022
#        69421
#        88400
#        101545
#        119335
#        133801
#        146361
#        166132
#        188235
#        204262
#        215896
#        237527
#        261903
#        274509
#        299834
#        315933
#
# Disc length: 4600 seconds
#
# Revision: 0
# Processed by: cddbd v1.5.2PL0 Copyright (c) Steve Scherf et al.
# Submitted via: ExactAudioCopy v1.1
#
DISCID=1c11f613
DTITLE=Various Artist - Het Allerbeste Uit Radio 1 Classics 1000 Van 2019 - C
DTITLE=D 4
DYEAR=2019
DGENRE=Easy Listening
TTITLE0=Nick Cave and The Bad Seeds - The Weeping Song
TTITLE1=Supertramp - Give A Little Bit
TTITLE2=The Cure - Just Like Heaven
TTITLE3=Lloyd Cole and The Commotions - Rattlesnakes
TTITLE4=Soft Cell - Tainted Love
TTITLE5=Jacques Dutronc - Il Est Cinq Heures, Paris S'Éveille
TTITLE6=Muddy Waters - Mannish Boy
TTITLE7=Chicken Shack - I'D Rather Go Blind
TTITLE8=Frank Zappa - Bobby Brown Goes Down
TTITLE9=Rod Stewart - Handbags and Gladrags
TTITLE10=The The - Uncertain Smile
TTITLE11=Fischer - Z - The Worker
TTITLE12=Marianne Faithfull - As Tears Go By
TTITLE13=Jah Wobble - How Much Are They?
TTITLE14=Melissa Etheridge - Like The Way I Do
TTITLE15=Dionne Warwick - Walk On By
TTITLE16=Roxy Music - A Song For Europe
TTITLE17=Stromae - Formidable
TTITLE18=Elbow - One Day Like This
EXTD=
EXTT0=
EXTT1=
EXTT2=
EXTT3=
EXTT4=
EXTT5=
EXTT6=
EXTT7=
EXTT8=
EXTT9=
EXTT10=
EXTT11=
EXTT12=
EXTT13=
EXTT14=
EXTT15=
EXTT16=
EXTT17=
EXTT18=
PLAYORDER=
